<svg width="32" height="32" viewBox="0 0 32 32" fill="none" xmlns="http://www.w3.org/2000/svg">
<path d="M1.10006 25.3001L2.42671 27.0689L1.04049 30.303C0.956494 30.4993 1.00584 30.7271 1.16403 30.8704C1.25828 30.9558 1.37887 31 1.49996 31C1.58249 31 1.66549 30.9797 1.74068 30.938L11.7407 25.438C11.9008 25.3503 12 25.1824 12 25C12 24.8176 11.9008 24.6497 11.7407 24.562L1.74068 19.062C1.55515 18.9592 1.32221 18.9858 1.16403 19.1296C1.00581 19.2729 0.956494 19.5007 1.04049 19.697L2.42671 22.9311L1.10006 24.6999C0.966744 24.8777 0.966744 25.1223 1.10006 25.3001ZM3.35996 27.4291L8.05384 26.3247L2.53168 29.3618L3.35996 27.4291ZM8.05387 23.6753L3.35999 22.5709L2.53171 20.6382L8.05387 23.6753ZM3.20362 23.5618L9.31624 25L3.20362 26.4382L2.12496 25L3.20362 23.5618ZM23 1C18.7576 1 15.2855 4.32206 15.0253 8.5H13.707L12.3535 7.1465L11.6465 7.85353L12.293 8.50003H10.25C7.35496 8.50003 4.99999 10.8553 4.99999 13.75C4.99999 16.6448 7.35496 19 10.25 19H15.793L17.1465 20.3535L17.8535 19.6465L17.207 19H26.75C28.2661 19 29.5 20.2337 29.5 21.75C29.5 23.2663 28.2661 24.5 26.75 24.5H22.207L20.8535 23.1465L20.1465 23.8535L20.793 24.5H13V25.5H20.793L20.1465 26.1465L20.8535 26.8536L22.207 25.5001H26.75C28.8178 25.5001 30.5 23.8179 30.5 21.7501C30.5 19.6822 28.8178 18.0001 26.75 18.0001H17.207L17.8535 17.3536L17.1465 16.6465L15.793 18H10.25C7.90674 18 5.99999 16.0935 5.99999 13.75C5.99999 11.4065 7.90674 9.50003 10.25 9.50003H12.293L11.6465 10.1465L12.3535 10.8536L13.707 9.50006H15.0253C15.2855 13.678 18.7576 17.0001 23 17.0001C27.4111 17.0001 31 13.4112 31 9.00006C31 4.58894 27.4111 1.00006 23 1.00006V1ZM23 16C19.3089 16 16.2834 13.1265 16.0253 9.5H17.5253C17.7791 12.2989 20.136 14.5 23 14.5C26.0327 14.5 28.5 12.0327 28.5 9C28.5 5.96728 26.0327 3.5 23 3.5C20.136 3.5 17.7791 5.70106 17.5253 8.5H16.0253C16.2835 4.87353 19.3089 2 23 2C26.8598 2 30 5.14013 30 9C30 12.8599 26.8598 16 23 16ZM21.8535 10.8535L23.3535 9.3535C23.5488 9.15819 23.5488 8.84178 23.3535 8.64647L21.8535 7.14647L21.1464 7.8535L21.7929 8.5H18.5295C18.7792 6.2535 20.6877 4.5 23 4.5C25.4814 4.5 27.5 6.51881 27.5 9C27.5 11.4812 25.4814 13.5 23 13.5C20.6877 13.5 18.7792 11.7465 18.5295 9.5H21.7929L21.1464 10.1465L21.8535 10.8535ZM26 9C26 7.34572 24.6542 6 23 6V7C24.103 7 25 7.89722 25 9C25 10.1028 24.103 11 23 11V12C24.6542 12 26 10.6543 26 9Z" fill="black"/>
</svg>
